<?xml version="1.0" standalone="no"?>
<!DOCTYPE svg PUBLIC "-//W3C//DTD SVG 20010904//EN"
 "http://www.w3.org/TR/2001/REC-SVG-20010904/DTD/svg10.dtd">
<svg version="1.0" xmlns="http://www.w3.org/2000/svg"
 width="312.000000pt" height="96.000000pt" viewBox="0 0 312.000000 96.000000"
 preserveAspectRatio="xMidYMid meet">

<g transform="translate(0.000000,96.000000) scale(0.100000,-0.100000)"
fill="#000000" stroke="none">
<path d="M1390 885 l0 -75 70 0 70 0 0 75 0 75 -70 0 -70 0 0 -75z"/>
<path d="M249 796 c-73 -26 -127 -77 -159 -149 -89 -201 47 -417 262 -417 38
0 84 7 105 15 44 18 43 18 43 0 0 -12 15 -15 75 -15 l75 0 0 290 0 290 -75 0
-75 0 0 -31 0 -30 -27 19 c-61 42 -153 54 -224 28z m181 -149 c64 -42 71 -67
68 -232 l-3 -147 -40 50 c-39 49 -41 50 -93 50 -87 -1 -152 64 -152 151 0 118
127 192 220 128z"/>
<path d="M720 520 l0 -290 75 0 75 0 0 253 1 252 47 -52 47 -53 30 20 c43 28
106 27 142 -4 l28 -24 4 -196 3 -196 69 0 69 0 0 203 c0 111 -5 219 -11 240
-14 52 -61 102 -114 123 -70 26 -185 16 -258 -23 l-57 -31 0 34 0 34 -75 0
-75 0 0 -290z"/>
<path d="M1830 520 l0 -290 70 0 70 0 0 290 0 290 -70 0 -70 0 0 -290z"/>
<path d="M2247 796 c-197 -71 -259 -311 -122 -474 14 -17 53 -45 87 -61 85
-43 179 -44 258 -4 30 16 55 33 57 38 1 6 -17 32 -41 59 l-43 49 -26 -18 c-37
-24 -107 -23 -149 3 -52 32 -72 77 -66 146 4 49 10 62 40 93 41 41 106 54 158
33 37 -15 80 -64 80 -91 0 -17 -8 -19 -75 -19 -41 0 -75 -3 -75 -7 1 -5 18
-27 39 -50 l39 -43 110 0 111 0 7 34 c7 42 -9 123 -36 175 -26 52 -101 116
-157 135 -56 19 -144 20 -196 2z"/>
<path d="M2835 791 c-51 -23 -101 -79 -114 -128 -6 -21 -11 -127 -11 -235 l0
-198 75 0 75 0 0 198 c0 155 3 202 14 218 12 16 29 20 110 22 l96 4 0 69 0 69
-102 0 c-78 0 -113 -5 -143 -19z"/>
<path d="M1390 525 c0 -154 6 -181 54 -233 43 -49 87 -62 201 -62 l105 0 0 70
0 70 -90 0 c-127 0 -130 4 -130 172 l0 128 -70 0 -70 0 0 -145z"/>
<path d="M507 144 c-4 -4 -7 -31 -7 -61 l0 -53 38 0 c60 0 92 50 60 92 -14 18
-79 34 -91 22z m68 -59 c0 -23 -5 -31 -22 -33 -20 -3 -23 1 -23 33 0 32 3 36
23 33 17 -2 22 -10 22 -33z"/>
<path d="M1280 90 c0 -47 3 -60 15 -60 12 0 15 13 15 60 0 47 -3 60 -15 60
-12 0 -15 -13 -15 -60z"/>
<path d="M1330 140 c0 -5 7 -10 15 -10 8 0 15 5 15 10 0 6 -7 10 -15 10 -8 0
-15 -4 -15 -10z"/>
<path d="M1480 140 c0 -5 5 -10 10 -10 6 0 10 5 10 10 0 6 -4 10 -10 10 -5 0
-10 -4 -10 -10z"/>
<path d="M1870 90 c0 -47 3 -60 15 -60 11 0 15 11 15 36 0 45 24 42 28 -4 5
-48 24 -38 20 10 -3 37 -6 43 -25 42 -16 0 -23 5 -23 18 0 10 -7 18 -15 18
-12 0 -15 -13 -15 -60z"/>
<path d="M2130 144 c0 -24 36 -114 45 -114 7 0 19 17 27 37 l14 38 13 -38 c7
-20 18 -37 25 -37 7 0 20 24 29 53 20 62 20 67 7 67 -5 0 -15 -19 -22 -41
l-12 -42 -18 42 c-20 48 -31 47 -49 -7 l-12 -37 -11 39 c-6 22 -17 41 -24 44
-6 2 -12 0 -12 -4z"/>
<path d="M2500 90 c0 -33 4 -60 10 -60 6 0 10 27 10 60 0 33 -4 60 -10 60 -6
0 -10 -27 -10 -60z"/>
<path d="M2610 129 c0 -11 -5 -17 -10 -14 -16 10 -48 -5 -55 -25 -11 -35 12
-60 55 -60 l40 0 0 60 c0 47 -3 60 -15 60 -8 0 -15 -9 -15 -21z m-2 -57 c3
-17 -2 -22 -17 -22 -14 0 -21 6 -21 18 0 38 33 41 38 4z"/>
<path d="M1043 120 c-8 -12 -9 -21 -3 -25 6 -3 10 -19 10 -36 0 -22 5 -29 20
-29 11 0 20 5 20 10 0 6 -4 10 -10 10 -14 0 -12 48 2 52 9 3 8 9 -4 21 -21 21
-21 21 -35 -3z"/>
<path d="M1799 123 c-4 -55 9 -93 31 -93 11 0 20 5 20 10 0 6 -4 10 -10 10
-14 0 -12 48 2 52 9 3 8 9 -4 21 -21 22 -38 22 -39 0z"/>
<path d="M642 108 c-29 -29 -7 -78 34 -78 34 0 40 20 7 21 l-28 1 30 7 c23 5
29 11 27 26 -6 34 -46 47 -70 23z m43 -18 c3 -5 -3 -10 -15 -10 -12 0 -18 5
-15 10 3 6 10 10 15 10 5 0 12 -4 15 -10z"/>
<path d="M745 100 c-27 -30 -7 -70 35 -70 16 0 30 5 30 10 0 6 -12 10 -26 10
-21 0 -25 4 -22 23 2 16 9 21 26 19 15 -1 22 2 20 10 -7 21 -43 20 -63 -2z"/>
<path d="M842 108 c-29 -29 -7 -78 34 -78 34 0 39 18 7 23 l-28 4 28 2 c19 1
27 6 27 19 0 36 -43 55 -68 30z m43 -18 c3 -5 -3 -10 -15 -10 -12 0 -18 5 -15
10 3 6 10 10 15 10 5 0 12 -4 15 -10z"/>
<path d="M940 74 c0 -51 17 -60 22 -11 2 17 8 32 13 32 6 0 11 -15 13 -32 4
-46 32 -45 32 1 0 39 -14 54 -52 54 -26 0 -28 -3 -28 -44z"/>
<path d="M1110 74 c0 -32 4 -44 15 -44 10 0 15 10 15 29 0 16 6 31 15 35 25 9
17 23 -15 24 -29 1 -30 -1 -30 -44z"/>
<path d="M1185 110 c-3 -5 3 -10 14 -10 11 0 23 -4 26 -10 3 -6 -5 -10 -19
-10 -13 0 -26 -6 -29 -12 -9 -26 6 -38 44 -38 35 0 39 3 39 26 0 38 -18 64
-45 64 -13 0 -27 -4 -30 -10z m43 -52 c-6 -18 -28 -21 -28 -4 0 9 7 16 16 16
9 0 14 -5 12 -12z"/>
<path d="M1330 75 c0 -33 4 -45 15 -45 11 0 15 12 15 45 0 33 -4 45 -15 45
-11 0 -15 -12 -15 -45z"/>
<path d="M1380 111 c0 -5 9 -11 21 -13 l21 -3 -21 -27 c-12 -14 -21 -29 -21
-32 0 -3 18 -6 40 -6 22 0 40 5 40 10 0 6 -9 10 -20 10 -11 0 -20 4 -20 8 0 5
9 17 20 27 29 27 25 35 -20 35 -22 0 -40 -4 -40 -9z"/>
<path d="M1480 75 c0 -25 5 -45 10 -45 6 0 10 20 10 45 0 25 -4 45 -10 45 -5
0 -10 -20 -10 -45z"/>
<path d="M1530 74 c0 -51 17 -60 22 -11 2 20 8 32 18 32 10 0 16 -12 18 -32 5
-49 24 -40 20 10 -3 41 -4 42 -40 43 l-38 1 0 -43z"/>
<path d="M1640 105 c-7 -8 -10 -25 -6 -40 5 -20 13 -25 37 -25 19 0 28 -4 23
-11 -3 -6 -17 -9 -31 -6 -15 3 -22 0 -20 -7 5 -14 48 -19 66 -7 9 6 15 27 15
57 l1 48 -36 3 c-23 2 -41 -2 -49 -12z m58 -28 c2 -12 -3 -17 -17 -17 -12 0
-21 6 -21 13 0 31 32 34 38 4z"/>
<path d="M1986 104 c-30 -30 -10 -74 34 -74 38 0 39 17 3 23 -26 4 -26 4 5 6
24 1 32 6 32 19 0 39 -45 55 -74 26z m49 -14 c3 -5 -3 -10 -15 -10 -12 0 -18
5 -15 10 3 6 10 10 15 10 5 0 12 -4 15 -10z"/>
<path d="M2326 107 c-21 -16 -18 -55 5 -70 9 -5 28 -7 42 -3 21 5 27 12 27 34
0 48 -36 67 -74 39z m52 -30 c4 -20 -25 -34 -40 -19 -15 15 -1 44 19 40 10 -2
19 -11 21 -21z"/>
<path d="M2425 112 c-3 -3 -5 -23 -5 -44 0 -27 4 -38 15 -38 9 0 15 9 15 25 0
14 7 28 15 31 24 10 17 32 -10 32 -13 0 -27 -3 -30 -6z"/>
</g>
</svg>
